# Blender v2.83.0 OBJ File: 'psm2.blend'
# www.blender.org
#mtllib tool yaw link.mtl
mtllib main insertion link.mtl
o tool_yaw_link_Tool_Yaw_Link
v -5.886727194592822E-07 0.0190621055662632 -0.01905940286815166
v -5.988716225147073E-07 0.01905754581093788 0.01906157843768596
v 0.0037179181817919 0.01869130320847034 0.01906153559684753
v 0.00371792865917086 0.01869586296379566 -0.01905944757163524
v 0.00729353446513414 0.01760664954781532 0.01906140521168708
v 0.00729354470968246 0.01761120930314064 -0.01905957609415054
v 0.01058884058147668 0.0158452708274126 0.01906119659543037
v 0.01058884989470243 0.01584983058273792 -0.01905978471040725
v 0.01347720064222812 0.01347485370934009 0.01906091347336769
v 0.01347720995545387 0.01347941253334283 -0.01906006783246994
v 0.01584761776030063 0.01058648899197578 0.01906056888401508
v 0.01584762707352638 0.01059104781597852 -0.01906041242182254
v 0.01760899648070335 0.00729118334129452 0.01906017586588859
v 0.0176090057939291 0.00729574123397469 -0.01906080730259418
v 0.01869364641606807 0.00371556635946035 0.01905974745750427
v 0.01869365572929382 0.00372012448497116 -0.01906123384833336
v 0.01905988901853561 -2.950960833913996E-06 0.01905930414795875
v 0.01905989833176136 1.6070092669906444E-06 -0.01906167902052402
v 0.01869364827871322 -0.00372146861627697 0.01905885897576809
v 0.01869365759193897 -0.00371691025793552 -0.01906212233006954
v 0.0176089946180582 -0.00729708513244986 0.01905843243002891
v 0.01760900393128395 -0.00729252723976969 -0.01906255073845386
v 0.01584761589765548 -0.01059239543974399 0.01905803754925727
v 0.01584762521088123 -0.01058783661574125 -0.0190629456192255
v 0.01347719877958297 -0.01348075829446315 0.01905769109725952
v 0.01347720809280872 -0.01347619947046041 -0.01906329020857811
v 0.01058883499354124 -0.01585117541253566 0.01905740797519683
v 0.01058884430676698 -0.0158466175198555 -0.01906357519328594
v 0.00729352608323097 -0.01761255785822868 0.01905719563364982
v 0.00729353679344058 -0.01760799810290336 -0.01906378753483295
v 0.00371790886856615 -0.01869720593094825 0.01905706524848938
v 0.00371791934594512 -0.01869264617562294 -0.0190639179199934
v -6.096303764024924E-07 -0.01906344853341579 0.01905701868236065
v -5.994314165036485E-07 -0.01905888877809047 -0.01906396262347698
v -0.00371912820264697 -0.0186972040683031 0.01905706338584423
v -0.003719117725268 -0.01869264431297779 -0.01906391978263855
v -0.00729474518448114 -0.01761254854500293 0.01905719190835952
v -0.00729473447427153 -0.01760798878967762 -0.0190637893974781
v -0.01059005130082368 -0.01585116609930992 0.01905740052461624
v -0.01059004198759794 -0.01584660820662975 -0.01906358078122139
v -0.01347841136157512 -0.01348074711859226 0.01905768364667892
v -0.01347840204834938 -0.01347618829458952 -0.0190632976591587
v -0.01584882661700248 -0.01059238146990537 0.01905802823603153
v -0.01584881730377674 -0.01058782264590263 -0.0190629530698061
v -0.01761020347476005 -0.00729706929996609 0.01905842311680317
v -0.01761019416153431 -0.00729251187294721 -0.01906256005167961
v -0.01869485154747963 -0.0037214495241642 0.01905884966254234
v -0.01869484223425388 -0.00371689139865338 -0.01906213164329528
v -0.01906109042465686 -2.929433776444057E-06 0.01905929483473301
v -0.01906108111143112 1.6285363244605833E-06 -0.01906168833374977
v -0.01869484409689903 0.00371558987535536 0.01905973814427852
v -0.01869483478367328 0.00372014800086617 -0.0190612431615591
v -0.01761018671095371 0.00729120802134275 0.01906016655266285
v -0.01761017739772796 0.00729576544836163 -0.01906081661581993
v -0.01584880426526069 0.01058651413768529 0.01906056143343448
v -0.01584879495203495 0.01059107296168804 -0.01906042173504829
v -0.01347838249057531 0.01347487512975931 0.01906090602278709
v -0.01347837317734956 0.01347943395376205 -0.01906007528305053
v -0.01059001684188842 0.01584528759121894 0.01906119100749492
v -0.01059000752866268 0.01584984734654426 -0.01905979216098785
v -0.00729470606893301 0.01760666444897651 0.01906140334904194
v -0.00729469582438468 0.01761122234165668 -0.01905957981944084
v -0.00371908722445368 0.01869131065905094 0.01906153373420238
v -0.00371907674707472 0.01869586855173111 -0.01905944943428039
# 64 vertices

vn 0.09801730513572692 0.99518471956253056 0.00011912105401279405
vn 0.09801728278398514 0.99518465995788576 0.00011902715777978301
vn 0.29028534889221192 0.9569400548934936 0.00011452379112597555
vn 0.29028519988059996 0.9569401741027832 0.00011454483319539577
vn 0.47139719128608704 0.88192099332809456 0.00010563572868704796
vn 0.471396803855896 0.8819212317466736 0.00010560654482105747
vn 0.6343936920166016 0.77301013469696048 9.26611028262414E-05
vn 0.6343936324119568 0.77301025390624992 9.258436330128461E-05
vn 0.77301090955734256 0.63439279794692992 7.60596594773233E-05
vn 0.77301037311553952 0.63439333438873288 7.605412974953651E-05
vn 0.8819212913513184 0.47139668464660648 5.659784801537171E-05
vn 0.88192093372344976 0.47139725089073184 5.65635236853268E-05
vn 0.95694077014923088 0.29028326272964476 3.4933076676679775E-05
vn 0.9569399952888488 0.29028585553169252 3.4944921935675666E-05
vn 0.99518477916717536 0.0980166271328926 1.1962549251620658E-05
vn 0.99518471956253056 0.0980176031589508 1.1962633834627923E-05
vn 0.99518471956253056 -0.09801730513572692 -1.1475679457362276E-05
vn 0.99518477916717536 -0.09801681339740754 -1.1477795851533301E-05
vn 0.9569399952888488 -0.29028585553169252 -3.446693881414831E-05
vn 0.95694065093994144 -0.29028359055519104 -3.44771942764055E-05
vn 0.8819210529327392 -0.47139719128608704 -5.613802568404935E-05
vn 0.88192147016525264 -0.47139632701873776 -5.61579545319546E-05
vn 0.77301031351089472 -0.63439339399337768 -7.567653665319085E-05
vn 0.77301067113876336 -0.63439309597015384 -7.567631837446243E-05
vn 0.63439285755157472 -0.77301079034805296 -9.230340947397053E-05
vn 0.63439339399337768 -0.77301031351089472 -9.227418195223436E-05
vn 0.47139698266983032 -0.881921112537384 -0.0001052778898156248
vn 0.47139757871627808 -0.88192081451416016 -0.0001053882297128439
vn 0.2902837097644806 -0.95694059133529664 -0.00011442157119745389
vn 0.29028385877609252 -0.95694059133529664 -0.00011432757310103625
vn 0.09801727533340454 -0.99518471956253056 -0.00011901884136023
vn 0.09801726788282394 -0.99518471956253056 -0.00011894541239598766
vn -0.09801774471998214 -0.99518460035324096 -0.0001191209812532179
vn -0.09801777452230454 -0.99518471956253056 -0.0001190269467770122
vn -0.29028570652008056 -0.9569399952888488 -0.00011462589463917539
vn -0.29028573632240296 -0.95693993568420416 -0.00011453167826402932
vn -0.47139760851860048 -0.88192075490951536 -0.00010563560499576852
vn -0.47139722108840944 -0.8819210529327392 -0.00010560634837020189
vn -0.63439375162124632 -0.77301001548767088 -9.260996012017131E-05
vn -0.63439393043518064 -0.77300995588302608 -9.258415957447141E-05
vn -0.77301079034805296 -0.63439285755157472 -7.603409176226705E-05
vn -0.77301090955734256 -0.63439273834228512 -7.605397695442662E-05
vn -0.88192182779312128 -0.47139570116996768 -5.659777525579557E-05
vn -0.88192158937454224 -0.47139614820480344 -5.6563316320534796E-05
vn -0.95694077014923088 -0.29028335213661192 -3.4933051210828125E-05
vn -0.95694053173065184 -0.29028406739234924 -3.49447327607777E-05
vn -0.9951848983764648 -0.09801480919122696 -1.196254015667364E-05
vn -0.99518483877182 -0.09801673889160156 -1.196325320051983E-05
vn -0.99518460035324096 0.09801819175481796 1.1477270163595676E-05
vn -0.99518465995788576 0.09801756590604782 1.147636430687271E-05
vn -0.95693963766098016 0.29028692841529848 3.447968265390955E-05
vn -0.9569399952888488 0.29028576612472536 3.447094786679372E-05
vn -0.88192069530487056 0.47139760851860048 5.613807661575265E-05
vn -0.88192099332809456 0.47139719128608704 5.6158136430894956E-05
vn -0.7730093598365784 0.63439470529556272 7.567649299744517E-05
vn -0.77300965785980224 0.63439428806304928 7.565090345451608E-05
vn -0.63439214229583744 0.77301144599914544 9.235457400791347E-05
vn -0.63439226150512696 0.7730112075805664 9.232543379766867E-05
vn -0.47139573097229 0.88192176818847664 0.00010538010974414647
vn -0.47139567136764528 0.88192170858383184 0.00010540132643654943
vn -1.6695515796527616E-06 -0.00012176396558061242 1
vn 0 -0.00011931866174563766 1
vn -8.01391161076026E-06 -0.00011961210111621767 0.9999999403953552
vn 0 -0.00012081960448995233 0.9999999403953552
vn -5.342579697753536E-06 -0.00011893109331140295 1
vn 0 -0.00011992140207439661 1
vn 5.342579697753536E-06 -0.00012081782188033685 1
vn -2.671289848876768E-06 -0.00012130825780332088 1
vn -6.678242243651766E-07 -0.00011677660222630948 1
vn -1.3356556110011297E-06 -0.00011687492224154994 1
vn -2.671318270586198E-06 -0.00011735914449673146 1
vn -5.342593794921413E-06 -0.00011961357813561335 1
vn 0 -0.00011992151848971844 1
vn 0 -0.00011892911425093189 0.9999999403953552
vn -2.6713075840234524E-06 -0.00011919829557882622 1
vn 0 -0.00012003497977275401 1
vn 6.875127382954815E-07 -0.00011895430361619219 1
vn 0 -0.0001195093645947054 1
vn -2.0625361685233656E-06 -0.00012004504242213443 1
vn 0 -0.00012067629722878337 1
vn -6.875115445836855E-07 -0.00011986183380940929 1
vn 1.375025931338314E-06 -0.00011950925545534119 1
vn 6.875125109218061E-07 -0.00011950082989642397 1
vn -3.8680178704453283E-07 -0.00011976961832260713 1
vn 5.802008899991051E-07 -0.00011950934276683256 1
vn -1.9340025403380423E-07 -0.00011964180885115638 1
vn -5.802016858069692E-07 -0.00011950945190619677 1
vn -4.806547622138169E-07 -0.00011953822831856087 0.9999999403953552
vn -1.6021817828004714E-07 -0.00011950088810408488 1
vn -0.2902831733226776 0.95694082975387568 0.0001143193876487203
vn -0.29028326272964476 0.95694077014923088 0.00011422554962337017
vn -0.09801606833934784 0.99518483877182 0.00011891764734173194
vn -0.09801658987998962 0.99518477916717536 0.00011904877464985475
vn 3.3391390275028243E-07 0.0001246030442416668 -1
vn 0 0.00011837005149573088 -1
vn 0 0.00011901929974555969 -1
vn 0 0.0001185861328849569 -1
vn -1.0685198503779247E-05 0.00011946696031372994 -1
vn 0 0.00011979136615991592 -1
vn 2.671289848876768E-06 0.00011739898036466911 -1
vn -1.3356412864595768E-06 0.0001210062182508409 -1
vn 6.678278055005649E-07 0.00011951771011808887 -1
vn 0 0.00011611692752921954 -1
vn 0 0.00011901995458174497 -1
vn 1.0685155757528264E-05 0.00012053278624080122 -1
vn 5.342582426237641E-06 0.00011946723680011928 -1
vn 0 0.00011858600191771984 -1
vn 0 0.00012099472223781049 -1
vn -1.3356556110011297E-06 0.0001210075497510843 -1
vn 0 0.00011906383588211611 -0.9999999403953552
vn 0 0.00011968325270572677 -1
vn 2.7500479973241454E-06 0.00011946738231927156 -1
vn 3.437560280872276E-07 0.00011922064732061699 -1
vn 6.875101234982139E-07 0.0001197179954033345 -1
vn 1.3750250218436122E-06 0.00011968298349529505 -1
vn 0 0.00011946699669351801 -0.9999999403953552
vn 1.0312672884538188E-06 0.0001192207055282779 -1
vn 3.868021565267554E-07 0.00011972550419159234 -1
vn 0 0.00011958728282479569 -1
vn -1.934003108772231E-07 0.00011962506687268615 -1
vn 0 0.00011943714343942702 -1
vn 4.005458720257593E-07 0.00011957032256759703 -1
vn 1.6021810722577357E-07 0.00011955125228269026 -1
# 123 vertex normals

usemtl None
s off
f 1//1 2//1 3//1
f 1//2 3//2 4//2
f 4//3 3//3 5//3
f 4//4 5//4 6//4
f 6//5 5//5 7//5
f 6//6 7//6 8//6
f 8//7 7//7 9//7
f 8//8 9//8 10//8
f 10//9 9//9 11//9
f 10//10 11//10 12//10
f 12//11 11//11 13//11
f 12//12 13//12 14//12
f 14//13 13//13 15//13
f 14//14 15//14 16//14
f 16//15 15//15 17//15
f 16//16 17//16 18//16
f 18//17 17//17 19//17
f 18//18 19//18 20//18
f 20//19 19//19 21//19
f 20//20 21//20 22//20
f 22//21 21//21 23//21
f 22//22 23//22 24//22
f 24//23 23//23 25//23
f 24//24 25//24 26//24
f 26//25 25//25 27//25
f 26//26 27//26 28//26
f 28//27 27//27 29//27
f 28//28 29//28 30//28
f 30//29 29//29 31//29
f 30//30 31//30 32//30
f 32//31 31//31 33//31
f 32//32 33//32 34//32
f 34//33 33//33 35//33
f 34//34 35//34 36//34
f 36//35 35//35 37//35
f 36//36 37//36 38//36
f 38//37 37//37 39//37
f 38//38 39//38 40//38
f 40//39 39//39 41//39
f 40//40 41//40 42//40
f 42//41 41//41 43//41
f 42//42 43//42 44//42
f 44//43 43//43 45//43
f 44//44 45//44 46//44
f 46//45 45//45 47//45
f 46//46 47//46 48//46
f 48//47 47//47 49//47
f 48//48 49//48 50//48
f 50//49 49//49 51//49
f 50//50 51//50 52//50
f 52//51 51//51 53//51
f 52//52 53//52 54//52
f 54//53 53//53 55//53
f 54//54 55//54 56//54
f 56//55 55//55 57//55
f 56//56 57//56 58//56
f 58//57 57//57 59//57
f 58//58 59//58 60//58
f 60//59 59//59 61//59
f 60//60 61//60 62//60
f 5//61 3//61 2//61
f 2//62 63//62 61//62
f 61//63 59//63 57//63
f 57//64 55//64 53//64
f 53//65 51//65 49//65
f 49//66 47//66 45//66
f 45//67 43//67 41//67
f 41//68 39//68 37//68
f 37//69 35//69 33//69
f 33//70 31//70 29//70
f 29//71 27//71 25//71
f 25//72 23//72 21//72
f 21//73 19//73 17//73
f 17//74 15//74 13//74
f 13//75 11//75 9//75
f 9//68 7//68 5//68
f 5//76 2//76 61//76
f 61//77 57//77 53//77
f 53//78 49//78 45//78
f 45//79 41//79 37//79
f 37//80 33//80 29//80
f 29//81 25//81 21//81
f 21//82 17//82 13//82
f 13//83 9//83 5//83
f 5//84 61//84 53//84
f 53//85 45//85 37//85
f 37//86 29//86 21//86
f 21//87 13//87 5//87
f 5//88 53//88 37//88
f 37//89 21//89 5//89
f 62//90 61//90 63//90
f 62//91 63//91 64//91
f 64//92 63//92 2//92
f 64//93 2//93 1//93
f 64//94 1//94 4//94
f 4//95 6//95 8//95
f 8//96 10//96 12//96
f 12//97 14//97 16//97
f 16//98 18//98 20//98
f 20//99 22//99 24//99
f 24//100 26//100 28//100
f 28//101 30//101 32//101
f 32//102 34//102 36//102
f 36//103 38//103 40//103
f 40//104 42//104 44//104
f 44//105 46//105 48//105
f 48//106 50//106 52//106
f 52//107 54//107 56//107
f 56//108 58//108 60//108
f 60//109 62//109 64//109
f 64//110 4//110 8//110
f 8//111 12//111 16//111
f 16//112 20//112 24//112
f 24//113 28//113 32//113
f 32//114 36//114 40//114
f 40//115 44//115 48//115
f 48//116 52//116 56//116
f 56//117 60//117 64//117
f 64//118 8//118 16//118
f 16//119 24//119 32//119
f 32//120 40//120 48//120
f 48//121 56//121 64//121
f 64//122 16//122 32//122
f 32//123 48//123 64//123
#124 polygons

