# Blender v2.83.0 OBJ File: 'psm2.blend'
# www.blender.org
mtllib yaw link.mtl
o yaw_link_Cone.001
v 0 0.10000000149011612 -0.25378355383872984
v 0 0 -0.05378355830907822
v 0.01950903236865997 0.09807852655649186 -0.25378355383872984
v 0.03826834633946419 0.09238795191049576 -0.25378355383872984
v 0.05555702373385429 0.08314695954322815 -0.25378355383872984
v 0.0707106813788414 0.0707106813788414 -0.25378355383872984
v 0.08314696699380875 0.055557020008564 -0.25378355383872984
v 0.09238795191049576 0.03826834261417389 -0.25378355383872984
v 0.09807852655649186 0.01950903609395027 -0.25378355383872984
v 0.10000000149011612 7.549790126404332E-09 -0.25378355383872984
v 0.09807853400707244 -0.01950902119278907 -0.25378355383872984
v 0.09238795936107636 -0.03826832771301269 -0.25378355383872984
v 0.08314696699380875 -0.055557020008564 -0.25378355383872984
v 0.0707106813788414 -0.0707106813788414 -0.25378355383872984
v 0.055557020008564 -0.08314696699380875 -0.25378355383872984
v 0.03826832771301269 -0.09238796681165696 -0.25378355383872984
v 0.01950900815427303 -0.09807853400707244 -0.25378355383872984
v -3.258413627804657E-08 -0.10000000149011612 -0.25378355383872984
v -0.01950907334685325 -0.09807851910591126 -0.25378355383872984
v -0.03826838731765747 -0.09238793700933456 -0.25378355383872984
v -0.05555707216262817 -0.08314692974090576 -0.25378355383872984
v -0.07071072608232498 -0.07071063667535782 -0.25378355383872984
v -0.08314700424671173 -0.05555696412920952 -0.25378355383872984
v -0.09238798916339874 -0.03826826810836792 -0.25378355383872984
v -0.09807854145765304 -0.0195089466869831 -0.25378355383872984
v -0.10000000149011612 9.655991561885457E-08 -0.25378355383872984
v -0.09807851165533066 0.01950913481414318 -0.25378355383872984
v -0.09238790720701218 0.03826844692230224 -0.25378355383872984
v -0.08314689248800278 0.05555712804198265 -0.25378355383872984
v -0.07071059197187424 0.07071077078580856 -0.25378355383872984
v -0.05555691197514534 0.08314704149961472 -0.25378355383872984
v -0.03826820850372314 0.09238801151514054 -0.25378355383872984
v -0.01950888149440288 0.09807855635881424 -0.25378355383872984
# 33 vertices

vn 0.08775376528501511 0.89097660779953008 0.44548836350440976
vn 0.25988796353340148 0.85673707723617552 0.44548836350440976
vn 0.422035813331604 0.78957319259643552 0.44548836350440976
vn 0.56796431541442872 0.6920669674873352 0.44548842310905456
vn 0.69206684827804568 0.56796443462371824 0.44548833370208744
vn 0.78957349061965936 0.42203539609909056 0.44548824429512024
vn 0.85673701763153072 0.25988844037055968 0.44548830389976504
vn 0.89097660779953008 0.0877537801861763 0.44548836350440976
vn 0.89097672700881952 -0.08775335550308228 0.44548836350440976
vn 0.85673701763153072 -0.25988844037055968 0.44548830389976504
vn 0.78957349061965936 -0.42203536629676816 0.44548818469047544
vn 0.69206684827804568 -0.56796443462371824 0.44548833370208744
vn 0.56796443462371824 -0.69206684827804568 0.44548839330673216
vn 0.42203557491302488 -0.78957337141036992 0.44548857212066648
vn 0.25988790392875672 -0.85673719644546512 0.44548836350440976
vn 0.08775331079959869 -0.89097672700881952 0.44548836350440976
vn -0.08775415271520615 -0.89097666740417488 0.44548836350440976
vn -0.25988835096359252 -0.85673683881759648 0.44548845291137696
vn -0.42203593254089352 -0.78957313299179072 0.44548845291137696
vn -0.56796491146087648 -0.69206643104553224 0.44548833370208744
vn -0.69206720590591432 -0.5679640173912048 0.44548830389976504
vn -0.78957366943359376 -0.42203503847122192 0.44548833370208744
vn -0.85673725605010992 -0.25988748669624328 0.44548839330673216
vn -0.89097678661346432 -0.08775288611650467 0.44548839330673216
vn -0.89097654819488528 0.08775458484888077 0.44548839330673216
vn -0.85673666000366208 0.25988954305648804 0.44548830389976504
vn -0.78957295417785648 0.42203634977340696 0.44548833370208744
vn -0.69206613302230832 0.56796520948410032 0.44548830389976504
vn -0.56796348094940184 0.69206756353378296 0.44548845291137696
vn -0.42203465104103088 0.7895739078521728 0.44548833370208744
vn -0.25988703966140748 0.85673725605010992 0.44548833370208744
vn -0.08775316923856735 0.89097666740417488 0.44548836350440976
vn 7.764023166600964E-07 0 -1
vn 6.211103027453646E-06 0 -1
vn 0 0 -1
vn -1.242229245690396E-05 0 -1
vn -1.2422283361956943E-05 0 -1
vn 0 0 -0.9999999403953552
vn 6.211083473317558E-06 0 -0.9999999403953552
vn 1.2422201507433783E-05 0 -1
vn 1.2422227882780135E-05 0 -1
vn -3.1055610634211916E-06 0 -1
vn 3.1971194403013214E-06 0 -1
vn -1.5985586969691212E-06 0 -1
vn -6.394231149897678E-06 0 -1
vn -7.992780979293457E-07 0 -1
vn -8.99364067663555E-07 0 -1
vn -4.496817496146832E-07 0 -1
vn 3.7252925721986685E-07 0 -1
# 49 vertex normals
usemtl Material.003
s off
f 1//1 2//1 3//1
f 3//2 2//2 4//2
f 4//3 2//3 5//3
f 5//4 2//4 6//4
f 6//5 2//5 7//5
f 7//6 2//6 8//6
f 8//7 2//7 9//7
f 9//8 2//8 10//8
f 10//9 2//9 11//9
f 11//10 2//10 12//10
f 12//11 2//11 13//11
f 13//12 2//12 14//12
f 14//13 2//13 15//13
f 15//14 2//14 16//14
f 16//15 2//15 17//15
f 17//16 2//16 18//16
f 18//17 2//17 19//17
f 19//18 2//18 20//18
f 20//19 2//19 21//19
f 21//20 2//20 22//20
f 22//21 2//21 23//21
f 23//22 2//22 24//22
f 24//23 2//23 25//23
f 25//24 2//24 26//24
f 26//25 2//25 27//25
f 27//26 2//26 28//26
f 28//27 2//27 29//27
f 29//28 2//28 30//28
f 30//29 2//29 31//29
f 31//30 2//30 32//30
f 32//31 2//31 33//31
f 33//32 2//32 1//32
f 33//33 1//33 3//33
f 3//34 4//34 5//34
f 5//35 6//35 7//35
f 7//36 8//36 9//36
f 9//35 10//35 11//35
f 11//37 12//37 13//37
f 13//35 14//35 15//35
f 15//34 16//34 17//34
f 17//38 18//38 19//38
f 19//39 20//39 21//39
f 21//38 22//38 23//38
f 23//40 24//40 25//40
f 25//41 26//41 27//41
f 27//35 28//35 29//35
f 29//35 30//35 31//35
f 31//42 32//42 33//42
f 33//35 3//35 5//35
f 5//35 7//35 9//35
f 9//43 11//43 13//43
f 13//44 15//44 17//44
f 17//35 19//35 21//35
f 21//45 23//45 25//45
f 25//35 27//35 29//35
f 29//46 31//46 33//46
f 33//35 5//35 9//35
f 9//47 13//47 17//47
f 17//35 21//35 25//35
f 25//48 29//48 33//48
f 33//49 9//49 17//49
f 17//35 25//35 33//35
#62 polygons

